<svg width="500" height="261" viewBox="0 0 500 261" fill="none" xmlns="http://www.w3.org/2000/svg">
<rect width="500" height="261" fill="#382D2D"/>
<path d="M138.996 87H136.828V74.3203H138.996V87ZM136.652 70.957C136.652 70.6055 136.758 70.3086 136.969 70.0664C137.188 69.8242 137.508 69.7031 137.93 69.7031C138.352 69.7031 138.672 69.8242 138.891 70.0664C139.109 70.3086 139.219 70.6055 139.219 70.957C139.219 71.3086 139.109 71.6016 138.891 71.8359C138.672 72.0703 138.352 72.1875 137.93 72.1875C137.508 72.1875 137.188 72.0703 136.969 71.8359C136.758 71.6016 136.652 71.3086 136.652 70.957ZM153.434 87H142.254V85.4414L148.16 78.8789C149.035 77.8867 149.637 77.082 149.965 76.4648C150.301 75.8398 150.469 75.1953 150.469 74.5312C150.469 73.6406 150.199 72.9102 149.66 72.3398C149.121 71.7695 148.402 71.4844 147.504 71.4844C146.426 71.4844 145.586 71.793 144.984 72.4102C144.391 73.0195 144.094 73.8711 144.094 74.9648H141.926C141.926 73.3945 142.43 72.125 143.438 71.1562C144.453 70.1875 145.809 69.7031 147.504 69.7031C149.09 69.7031 150.344 70.1211 151.266 70.957C152.188 71.7852 152.648 72.8906 152.648 74.2734C152.648 75.9531 151.578 77.9531 149.438 80.2734L144.867 85.2305H153.434V87ZM166.91 87H155.73V85.4414L161.637 78.8789C162.512 77.8867 163.113 77.082 163.441 76.4648C163.777 75.8398 163.945 75.1953 163.945 74.5312C163.945 73.6406 163.676 72.9102 163.137 72.3398C162.598 71.7695 161.879 71.4844 160.98 71.4844C159.902 71.4844 159.062 71.793 158.461 72.4102C157.867 73.0195 157.57 73.8711 157.57 74.9648H155.402C155.402 73.3945 155.906 72.125 156.914 71.1562C157.93 70.1875 159.285 69.7031 160.98 69.7031C162.566 69.7031 163.82 70.1211 164.742 70.957C165.664 71.7852 166.125 72.8906 166.125 74.2734C166.125 75.9531 165.055 77.9531 162.914 80.2734L158.344 85.2305H166.91V87ZM180.223 71.1562L173.156 87H170.883L177.926 71.7188H168.691V69.9375H180.223V71.1562ZM196.688 87C196.562 86.75 196.461 86.3047 196.383 85.6641C195.375 86.7109 194.172 87.2344 192.773 87.2344C191.523 87.2344 190.496 86.8828 189.691 86.1797C188.895 85.4688 188.496 84.5703 188.496 83.4844C188.496 82.1641 188.996 81.1406 189.996 80.4141C191.004 79.6797 192.418 79.3125 194.238 79.3125H196.348V78.3164C196.348 77.5586 196.121 76.957 195.668 76.5117C195.215 76.0586 194.547 75.832 193.664 75.832C192.891 75.832 192.242 76.0273 191.719 76.418C191.195 76.8086 190.934 77.2812 190.934 77.8359H188.754C188.754 77.2031 188.977 76.5938 189.422 76.0078C189.875 75.4141 190.484 74.9453 191.25 74.6016C192.023 74.2578 192.871 74.0859 193.793 74.0859C195.254 74.0859 196.398 74.4531 197.227 75.1875C198.055 75.9141 198.484 76.918 198.516 78.1992V84.0352C198.516 85.1992 198.664 86.125 198.961 86.8125V87H196.688ZM193.09 85.3477C193.77 85.3477 194.414 85.1719 195.023 84.8203C195.633 84.4688 196.074 84.0117 196.348 83.4492V80.8477H194.648C191.992 80.8477 190.664 81.625 190.664 83.1797C190.664 83.8594 190.891 84.3906 191.344 84.7734C191.797 85.1562 192.379 85.3477 193.09 85.3477ZM213.141 84.0117L215.578 74.3203H217.746L214.055 87H212.297L209.215 77.3906L206.215 87H204.457L200.777 74.3203H202.934L205.43 83.8125L208.383 74.3203H210.129L213.141 84.0117ZM225.223 87.2344C223.504 87.2344 222.105 86.6719 221.027 85.5469C219.949 84.4141 219.41 82.9023 219.41 81.0117V80.6133C219.41 79.3555 219.648 78.2344 220.125 77.25C220.609 76.2578 221.281 75.4844 222.141 74.9297C223.008 74.3672 223.945 74.0859 224.953 74.0859C226.602 74.0859 227.883 74.6289 228.797 75.7148C229.711 76.8008 230.168 78.3555 230.168 80.3789V81.2812H221.578C221.609 82.5312 221.973 83.543 222.668 84.3164C223.371 85.082 224.262 85.4648 225.34 85.4648C226.105 85.4648 226.754 85.3086 227.285 84.9961C227.816 84.6836 228.281 84.2695 228.68 83.7539L230.004 84.7852C228.941 86.418 227.348 87.2344 225.223 87.2344ZM224.953 75.8672C224.078 75.8672 223.344 76.1875 222.75 76.8281C222.156 77.4609 221.789 78.3516 221.648 79.5H228V79.3359C227.938 78.2344 227.641 77.3828 227.109 76.7812C226.578 76.1719 225.859 75.8672 224.953 75.8672ZM240.07 83.6367C240.07 83.0508 239.848 82.5977 239.402 82.2773C238.965 81.9492 238.195 81.668 237.094 81.4336C236 81.1992 235.129 80.918 234.48 80.5898C233.84 80.2617 233.363 79.8711 233.051 79.418C232.746 78.9648 232.594 78.4258 232.594 77.8008C232.594 76.7617 233.031 75.8828 233.906 75.1641C234.789 74.4453 235.914 74.0859 237.281 74.0859C238.719 74.0859 239.883 74.457 240.773 75.1992C241.672 75.9414 242.121 76.8906 242.121 78.0469H239.941C239.941 77.4531 239.688 76.9414 239.18 76.5117C238.68 76.082 238.047 75.8672 237.281 75.8672C236.492 75.8672 235.875 76.0391 235.43 76.3828C234.984 76.7266 234.762 77.1758 234.762 77.7305C234.762 78.2539 234.969 78.6484 235.383 78.9141C235.797 79.1797 236.543 79.4336 237.621 79.6758C238.707 79.918 239.586 80.207 240.258 80.543C240.93 80.8789 241.426 81.2852 241.746 81.7617C242.074 82.2305 242.238 82.8047 242.238 83.4844C242.238 84.6172 241.785 85.5273 240.879 86.2148C239.973 86.8945 238.797 87.2344 237.352 87.2344C236.336 87.2344 235.438 87.0547 234.656 86.6953C233.875 86.3359 233.262 85.8359 232.816 85.1953C232.379 84.5469 232.16 83.8477 232.16 83.0977H234.328C234.367 83.8242 234.656 84.4023 235.195 84.832C235.742 85.2539 236.461 85.4648 237.352 85.4648C238.172 85.4648 238.828 85.3008 239.32 84.9727C239.82 84.6367 240.07 84.1914 240.07 83.6367ZM244.488 80.543C244.488 79.3008 244.73 78.1836 245.215 77.1914C245.707 76.1992 246.387 75.4336 247.254 74.8945C248.129 74.3555 249.125 74.0859 250.242 74.0859C251.969 74.0859 253.363 74.6836 254.426 75.8789C255.496 77.0742 256.031 78.6641 256.031 80.6484V80.8008C256.031 82.0352 255.793 83.1445 255.316 84.1289C254.848 85.1055 254.172 85.8672 253.289 86.4141C252.414 86.9609 251.406 87.2344 250.266 87.2344C248.547 87.2344 247.152 86.6367 246.082 85.4414C245.02 84.2461 244.488 82.6641 244.488 80.6953V80.543ZM246.668 80.8008C246.668 82.207 246.992 83.3359 247.641 84.1875C248.297 85.0391 249.172 85.4648 250.266 85.4648C251.367 85.4648 252.242 85.0352 252.891 84.1758C253.539 83.3086 253.863 82.0977 253.863 80.543C253.863 79.1523 253.531 78.0273 252.867 77.168C252.211 76.3008 251.336 75.8672 250.242 75.8672C249.172 75.8672 248.309 76.293 247.652 77.1445C246.996 77.9961 246.668 79.2148 246.668 80.8008ZM260.789 74.3203L260.848 75.7266C261.777 74.6328 263.031 74.0859 264.609 74.0859C266.383 74.0859 267.59 74.7656 268.23 76.125C268.652 75.5156 269.199 75.0234 269.871 74.6484C270.551 74.2734 271.352 74.0859 272.273 74.0859C275.055 74.0859 276.469 75.5586 276.516 78.5039V87H274.348V78.6328C274.348 77.7266 274.141 77.0508 273.727 76.6055C273.312 76.1523 272.617 75.9258 271.641 75.9258C270.836 75.9258 270.168 76.168 269.637 76.6523C269.105 77.1289 268.797 77.7734 268.711 78.5859V87H266.531V78.6914C266.531 76.8477 265.629 75.9258 263.824 75.9258C262.402 75.9258 261.43 76.5312 260.906 77.7422V87H258.738V74.3203H260.789ZM285.059 87.2344C283.34 87.2344 281.941 86.6719 280.863 85.5469C279.785 84.4141 279.246 82.9023 279.246 81.0117V80.6133C279.246 79.3555 279.484 78.2344 279.961 77.25C280.445 76.2578 281.117 75.4844 281.977 74.9297C282.844 74.3672 283.781 74.0859 284.789 74.0859C286.438 74.0859 287.719 74.6289 288.633 75.7148C289.547 76.8008 290.004 78.3555 290.004 80.3789V81.2812H281.414C281.445 82.5312 281.809 83.543 282.504 84.3164C283.207 85.082 284.098 85.4648 285.176 85.4648C285.941 85.4648 286.59 85.3086 287.121 84.9961C287.652 84.6836 288.117 84.2695 288.516 83.7539L289.84 84.7852C288.777 86.418 287.184 87.2344 285.059 87.2344ZM284.789 75.8672C283.914 75.8672 283.18 76.1875 282.586 76.8281C281.992 77.4609 281.625 78.3516 281.484 79.5H287.836V79.3359C287.773 78.2344 287.477 77.3828 286.945 76.7812C286.414 76.1719 285.695 75.8672 284.789 75.8672ZM309.211 80.8008C309.211 82.7383 308.766 84.2969 307.875 85.4766C306.984 86.6484 305.789 87.2344 304.289 87.2344C302.688 87.2344 301.449 86.668 300.574 85.5352L300.469 87H298.477V69H300.645V75.7148C301.52 74.6289 302.727 74.0859 304.266 74.0859C305.805 74.0859 307.012 74.668 307.887 75.832C308.77 76.9961 309.211 78.5898 309.211 80.6133V80.8008ZM307.043 80.5547C307.043 79.0781 306.758 77.9375 306.188 77.1328C305.617 76.3281 304.797 75.9258 303.727 75.9258C302.297 75.9258 301.27 76.5898 300.645 77.918V83.4023C301.309 84.7305 302.344 85.3945 303.75 85.3945C304.789 85.3945 305.598 84.9922 306.176 84.1875C306.754 83.3828 307.043 82.1719 307.043 80.5547ZM319.781 87C319.656 86.75 319.555 86.3047 319.477 85.6641C318.469 86.7109 317.266 87.2344 315.867 87.2344C314.617 87.2344 313.59 86.8828 312.785 86.1797C311.988 85.4688 311.59 84.5703 311.59 83.4844C311.59 82.1641 312.09 81.1406 313.09 80.4141C314.098 79.6797 315.512 79.3125 317.332 79.3125H319.441V78.3164C319.441 77.5586 319.215 76.957 318.762 76.5117C318.309 76.0586 317.641 75.832 316.758 75.832C315.984 75.832 315.336 76.0273 314.812 76.418C314.289 76.8086 314.027 77.2812 314.027 77.8359H311.848C311.848 77.2031 312.07 76.5938 312.516 76.0078C312.969 75.4141 313.578 74.9453 314.344 74.6016C315.117 74.2578 315.965 74.0859 316.887 74.0859C318.348 74.0859 319.492 74.4531 320.32 75.1875C321.148 75.9141 321.578 76.918 321.609 78.1992V84.0352C321.609 85.1992 321.758 86.125 322.055 86.8125V87H319.781ZM316.184 85.3477C316.863 85.3477 317.508 85.1719 318.117 84.8203C318.727 84.4688 319.168 84.0117 319.441 83.4492V80.8477H317.742C315.086 80.8477 313.758 81.625 313.758 83.1797C313.758 83.8594 313.984 84.3906 314.438 84.7734C314.891 85.1562 315.473 85.3477 316.184 85.3477ZM327.059 74.3203L327.129 75.9141C328.098 74.6953 329.363 74.0859 330.926 74.0859C333.605 74.0859 334.957 75.5977 334.98 78.6211V87H332.812V78.6094C332.805 77.6953 332.594 77.0195 332.18 76.582C331.773 76.1445 331.137 75.9258 330.27 75.9258C329.566 75.9258 328.949 76.1133 328.418 76.4883C327.887 76.8633 327.473 77.3555 327.176 77.9648V87H325.008V74.3203H327.059ZM340.301 74.3203L340.371 75.9141C341.34 74.6953 342.605 74.0859 344.168 74.0859C346.848 74.0859 348.199 75.5977 348.223 78.6211V87H346.055V78.6094C346.047 77.6953 345.836 77.0195 345.422 76.582C345.016 76.1445 344.379 75.9258 343.512 75.9258C342.809 75.9258 342.191 76.1133 341.66 76.4883C341.129 76.8633 340.715 77.3555 340.418 77.9648V87H338.25V74.3203H340.301ZM356.754 87.2344C355.035 87.2344 353.637 86.6719 352.559 85.5469C351.48 84.4141 350.941 82.9023 350.941 81.0117V80.6133C350.941 79.3555 351.18 78.2344 351.656 77.25C352.141 76.2578 352.812 75.4844 353.672 74.9297C354.539 74.3672 355.477 74.0859 356.484 74.0859C358.133 74.0859 359.414 74.6289 360.328 75.7148C361.242 76.8008 361.699 78.3555 361.699 80.3789V81.2812H353.109C353.141 82.5312 353.504 83.543 354.199 84.3164C354.902 85.082 355.793 85.4648 356.871 85.4648C357.637 85.4648 358.285 85.3086 358.816 84.9961C359.348 84.6836 359.812 84.2695 360.211 83.7539L361.535 84.7852C360.473 86.418 358.879 87.2344 356.754 87.2344ZM356.484 75.8672C355.609 75.8672 354.875 76.1875 354.281 76.8281C353.688 77.4609 353.32 78.3516 353.18 79.5H359.531V79.3359C359.469 78.2344 359.172 77.3828 358.641 76.7812C358.109 76.1719 357.391 75.8672 356.484 75.8672ZM370.348 76.2656C370.02 76.2109 369.664 76.1836 369.281 76.1836C367.859 76.1836 366.895 76.7891 366.387 78V87H364.219V74.3203H366.328L366.363 75.7852C367.074 74.6523 368.082 74.0859 369.387 74.0859C369.809 74.0859 370.129 74.1406 370.348 74.25V76.2656Z" fill="white"/>
<rect x="31" y="173" width="97" height="53" fill="#C4C4C4"/>
<ellipse cx="418.5" cy="160.5" rx="43.5" ry="39.5" fill="#C4C4C4"/>
<path d="M236.5 117L247.838 145.676H284.528L254.845 163.398L266.183 192.074L236.5 174.352L206.817 192.074L218.155 163.398L188.472 145.676H225.162L236.5 117Z" fill="#C4C4C4"/>
</svg>
